<svg width="92" height="74" viewBox="0 0 92 74" fill="none" xmlns="http://www.w3.org/2000/svg">
<path d="M36.107 47.8684L38.1186 50.5331C37.1287 51.2797 36.1388 52.0266 35.2498 52.7873C34.3709 53.5395 33.5437 54.3392 32.8208 55.2329L32.8173 55.2368L32.8208 55.2393C32.0882 56.1449 31.4528 57.1514 30.9405 58.2347C30.4374 59.2983 30.0454 60.4442 29.7879 61.6511C29.3597 63.6558 29.2896 65.8502 29.2872 67.4087C29.9441 66.9961 30.7426 66.4711 31.6125 65.833C32.8179 64.9485 34.1279 63.8622 35.2891 62.6032C36.4331 61.3621 37.4401 59.9497 38.2734 58.4588C39.1279 56.93 39.8053 55.3083 40.2655 53.6954C40.7153 52.1186 40.9523 50.5715 40.9778 49.0211C41.0036 47.4647 40.8172 45.8674 40.4209 44.1958C40.0097 42.4615 39.3827 40.6838 38.581 39.0074C37.8112 37.3978 36.8766 35.8662 35.8133 34.539C35.6854 34.3795 35.5557 34.223 35.424 34.0692C35.3815 34.0251 35.3414 33.9789 35.3039 33.9304C34.3641 32.8548 33.3278 31.9206 32.1965 31.0902C30.8274 30.0855 29.3233 29.2311 27.6862 28.4641C26.214 27.7743 24.6189 27.1475 23.063 26.601C21.0816 25.905 19.1847 25.3467 17.6852 24.9545C16.3505 24.6051 15.3329 24.3872 14.5621 24.2463L14.5311 24.2405C14.8492 25.672 15.3761 27.7675 16.2443 29.8531C16.7882 31.1607 17.4753 32.4795 18.2795 33.7446C19.0539 34.9626 19.9291 36.1174 20.8814 37.1498C21.7149 38.0536 22.6021 38.8642 23.4529 39.566C24.6146 40.5238 25.7372 41.3028 26.5722 41.8429C26.567 40.8867 26.5638 39.656 26.5621 38.271C26.5534 31.154 26.5532 33.0603 26.5532 32.4249C26.5532 31.5015 27.3019 30.7528 28.2253 30.7528C29.1488 30.7528 29.8974 31.5015 29.8974 32.4249C29.8974 37.1269 29.8887 34.7126 29.893 38.271C29.895 40.0409 29.8996 41.5613 29.9083 42.5793L29.9146 43.2165C29.9223 43.9238 29.9266 44.3089 29.8993 44.5595C29.6496 46.8586 28.9836 46.6515 27.5367 46.1233L27.434 46.0882C27.1067 45.9682 26.4197 45.7163 24.7998 44.671C23.8969 44.0881 22.6591 43.2295 21.3369 42.1394C20.361 41.3344 19.3537 40.4158 18.4257 39.4096C17.3276 38.2193 16.3297 36.9054 15.4579 35.5342C14.5587 34.1198 13.7835 32.6279 13.1616 31.1331C11.6701 27.5496 11.0196 23.7626 10.2449 19.9867C14.6315 21.417 19.3184 21.7522 24.1602 23.4527C24.8116 23.6814 25.4723 23.925 26.1323 24.1823V14.5098C26.1323 11.1631 26.1324 11.1863 30.0138 9.01542L30.0123 9.01248C31.8271 7.99708 34.7323 6.36542 37.4204 4.85601L42.1167 2.21973C42.3481 2.08998 46.0002 0.0342407 46.0002 0.0342407C46.0002 0.0342407 49.6524 2.08998 49.8838 2.21973L54.58 4.85601C57.2682 6.36542 60.1734 7.99708 61.9881 9.01248L61.9867 9.01542C65.8679 11.1863 65.8681 11.1631 65.8681 14.5098V24.1823C66.5282 23.925 67.1889 23.6814 67.8402 23.4527C72.682 21.7522 77.3689 21.417 81.7555 19.9867C80.9808 23.7626 80.3302 27.5496 78.8389 31.1331C78.217 32.6279 77.4418 34.1198 76.5425 35.5342C75.6707 36.9054 74.6728 38.2193 73.5748 39.4096C72.6467 40.4158 71.6394 41.3344 70.6635 42.1394C69.3413 43.2295 68.1036 44.0881 67.2006 44.671C65.5807 45.7163 64.8938 45.9682 64.5665 46.0882L64.4637 46.1233C63.0168 46.6515 62.3509 46.8586 62.1012 44.5595C62.0738 44.3089 62.0781 43.9238 62.0857 43.2165L62.0921 42.5793C62.1008 41.5613 62.1055 40.0409 62.1073 38.271C62.1118 34.7126 62.1029 37.1269 62.1029 32.4249C62.1029 31.5015 62.8516 30.7528 63.775 30.7528C64.6985 30.7528 65.4471 31.5015 65.4471 32.4249C65.4471 33.0603 65.447 31.154 65.4382 38.271C65.4368 39.656 65.4333 40.8867 65.4282 41.8429C66.2632 41.3028 67.3858 40.5238 68.5475 39.566C69.3982 38.8642 70.2854 38.0536 71.119 37.1498C72.0713 36.1174 72.9465 34.9626 73.7209 33.7446C74.5251 32.4795 75.2122 31.1607 75.7561 29.8531C76.6242 27.7675 77.1512 25.672 77.4693 24.2405L77.4382 24.2463C76.6675 24.3872 75.6499 24.6051 74.3151 24.9545C72.8156 25.3467 70.9188 25.905 68.9373 26.601C67.3815 27.1475 65.7864 27.7743 64.3142 28.4641C62.6771 29.2311 61.1729 30.0855 59.8039 31.0902C58.6725 31.9206 57.6363 32.8548 56.6965 33.9304C56.6589 33.9789 56.6189 34.0251 56.5764 34.0692C56.4447 34.223 56.3149 34.3795 56.187 34.539C55.1238 35.8662 54.1892 37.3978 53.4194 39.0074C52.6176 40.6838 51.9906 42.4615 51.5795 44.1958C51.1831 45.8674 50.9968 47.4647 51.0225 49.0211C51.0481 50.5715 51.2851 52.1186 51.7349 53.6954C52.195 55.3083 52.8724 56.93 53.727 58.4588C54.5603 59.9497 55.5672 61.3621 56.7113 62.6032C57.8725 63.8622 59.1824 64.9485 60.3879 65.833C61.2577 66.4711 62.0563 66.9961 62.7132 67.4087C62.7107 65.8502 62.6407 63.6558 62.2125 61.6511C61.955 60.4442 61.5629 59.2983 61.0598 58.2347C60.5475 57.1514 59.9122 56.1449 59.1796 55.2393L59.183 55.2368L59.1796 55.2329C58.4567 54.3392 57.6295 53.5395 56.7505 52.7873C55.8616 52.0266 54.8717 51.2797 53.8818 50.5331L55.8934 47.8684C56.902 48.6291 57.9108 49.3904 58.9191 50.253C59.9362 51.1235 60.9049 52.0629 61.7759 53.139L61.7794 53.1366C62.6649 54.2315 63.4414 55.4657 64.0776 56.8111C64.6899 58.1058 65.1663 59.4973 65.4784 60.9591C66.0905 63.8251 66.0552 66.9285 66.0371 68.5317L66.0356 68.667C66.0142 70.5597 66.0089 73.0619 66.0089 73.0619C63.275 71.5441 60.992 70.4139 58.4157 68.5241C57.0622 67.5311 55.5841 66.3032 54.2559 64.8632C52.9416 63.4374 51.7802 61.8067 50.8145 60.0788C49.8257 58.3098 49.0462 56.4482 48.5218 54.6102C47.999 52.7771 47.7229 50.945 47.692 49.0735C47.661 47.2073 47.8738 45.338 48.3272 43.4253C48.7836 41.5004 49.495 39.4951 50.4153 37.5708C51.2972 35.7267 52.3686 33.9713 53.5878 32.4493L53.6554 32.3654C53.5634 31.2256 53.4647 30.1005 53.327 29.0649C53.1567 27.7849 52.9183 26.5038 52.5447 25.2219C52.1957 24.0234 51.7236 22.8084 51.1813 21.6236C50.5651 20.2782 49.8411 18.9485 49.0929 17.7121C48.0729 16.0265 47.0386 14.568 46.0007 13.1734C44.9627 14.568 43.9284 16.0265 42.9084 17.7121C42.1602 18.9485 41.4362 20.2782 40.8201 21.6236C40.2777 22.8084 39.8057 24.0234 39.4567 25.2219C39.0831 26.5038 38.8447 27.7849 38.6743 29.0649C38.5366 30.1005 38.438 31.2256 38.3459 32.3654L38.4135 32.4493C39.6328 33.9713 40.7041 35.7267 41.5861 37.5708C42.5063 39.4951 43.2178 41.5004 43.6741 43.4253C44.1275 45.338 44.3403 47.2073 44.3093 49.0735C44.2785 50.945 44.0023 52.7771 43.4796 54.6102C42.9552 56.4482 42.1757 58.3098 41.1869 60.0788C40.2211 61.8067 39.0597 63.4374 37.7455 64.8632C36.4173 66.3032 34.9392 67.5311 33.5857 68.5241C31.0094 70.4139 28.7264 71.5441 25.9924 73.0619C25.9924 73.0619 25.9872 70.5597 25.9657 68.667L25.9643 68.5317C25.9462 66.9285 25.9108 63.8251 26.523 60.9591C26.8351 59.4973 27.3114 58.1058 27.9238 56.8111C28.56 55.4657 29.3365 54.2315 30.2221 53.1366L30.225 53.139C31.096 52.0629 32.0647 51.1235 33.0819 50.253C34.0901 49.3904 35.0989 48.6291 36.1075 47.8684H36.107ZM46 3.64826C45.9404 3.64826 45.9499 3.64826 45.993 3.64841L46 3.64826L46.0071 3.64841C46.0501 3.64826 46.0597 3.64826 46 3.64826ZM46 3.8738L43.7493 5.13302L39.053 7.76924C36.3649 9.27866 33.4597 10.9103 31.6449 11.9257L31.6435 11.9228L31.6386 11.9257C29.4768 13.1348 29.4766 13.1248 29.4766 14.51V25.6269C31.1719 26.4434 32.7368 27.3484 34.1692 28.3995C34.5514 28.6801 34.9245 28.971 35.2885 29.2732L35.3691 28.6338C35.5598 27.2006 35.8296 25.757 36.2558 24.2943C36.6533 22.9293 37.1834 21.5616 37.7891 20.2388C38.4843 18.721 39.2631 17.2833 40.0472 15.9875C41.7529 13.1684 43.8261 10.3419 46.0002 7.81586C48.1743 10.3419 50.2474 13.1684 51.9531 15.9875C52.7372 17.2833 53.5161 18.721 54.2113 20.2388C54.817 21.5616 55.3471 22.9293 55.7445 24.2943C56.1708 25.757 56.4406 27.2006 56.6313 28.6338L56.7119 29.2732C57.0758 28.971 57.449 28.6801 57.8312 28.3995C59.2636 27.3484 60.8285 26.4434 62.5238 25.6269V14.51C62.5238 13.1248 62.5236 13.1348 60.3618 11.9257L60.3569 11.9228L60.3554 11.9257C58.5406 10.9103 55.6354 9.27866 52.9473 7.76924L48.251 5.13302L46 3.8738ZM62.0878 49.3331C64.0661 50.9107 65.6514 53.0016 67.7449 54.7039C68.7734 55.54 69.9887 56.4095 71.2919 57.0833C72.56 57.7389 73.9037 58.2044 75.2925 58.5113C76.7868 58.8416 78.3016 58.9864 79.808 58.9864C81.2068 58.9864 82.6561 58.8567 83.9387 58.6907C84.9809 58.556 91.1104 57.4905 91.1104 57.4905C90.7422 57.9444 84.5594 51.2428 82.4234 49.909C81.297 49.2055 80.1647 48.6292 78.9478 48.2061C77.7146 47.7774 76.4167 47.5161 74.9809 47.4534C70.6486 47.2635 66.3281 48.5814 62.0878 49.3331ZM68.9653 51.367C70.6029 51.0672 72.916 50.7001 74.8372 50.7842C75.9318 50.8321 76.9175 51.03 77.8507 51.3543C78.8007 51.6845 79.72 52.1567 80.6598 52.7436C81.8875 53.5102 83.1412 54.4685 84.1668 55.2967C83.9584 55.3272 83.7425 55.3571 83.5207 55.3859C82.4092 55.5298 81.1209 55.6421 79.808 55.6421C78.4953 55.6421 77.217 55.5252 76.0111 55.2587C74.9074 55.0148 73.8361 54.643 72.8204 54.118C71.7452 53.5621 70.7221 52.8282 69.8479 52.1174C69.5346 51.8626 69.2387 51.6092 68.9653 51.367ZM29.9122 49.3331C27.934 50.9107 26.3487 53.0016 24.2551 54.7039C23.2267 55.54 22.0114 56.4095 20.7081 57.0833C19.44 57.7389 18.0964 58.2044 16.7075 58.5113C15.2133 58.8416 13.6985 58.9864 12.1921 58.9864C10.7933 58.9864 9.34401 58.8567 8.06141 58.6907C7.01916 58.556 0.889648 57.4905 0.889648 57.4905C1.25788 57.9444 7.44063 51.2428 9.57666 49.909C10.7031 49.2055 11.8353 48.6292 13.0522 48.2061C14.2855 47.7774 15.5834 47.5161 17.0191 47.4534C21.3515 47.2635 25.672 48.5814 29.9122 49.3331ZM23.0348 51.367C21.3972 51.0672 19.0841 50.7001 17.1629 50.7842C16.0683 50.8321 15.0825 51.03 14.1494 51.3543C13.1994 51.6845 12.28 52.1567 11.3402 52.7436C10.1125 53.5102 8.85886 54.4685 7.83332 55.2967C8.04171 55.3272 8.25754 55.3571 8.47941 55.3859C9.59083 55.5298 10.8792 55.6421 12.1921 55.6421C13.5048 55.6421 14.783 55.5252 15.989 55.2587C17.0926 55.0148 18.164 54.643 19.1796 54.118C20.2548 53.5621 21.278 52.8282 22.1522 52.1174C22.4655 51.8626 22.7613 51.6092 23.0348 51.367Z" fill="#D4BB8A"/>
</svg>
